<?xml version="1.0" encoding="UTF-8"?>
<!DOCTYPE svg
  PUBLIC '-//W3C//DTD SVG 1.1//EN'
  'http://www.w3.org/Graphics/SVG/1.1/DTD/svg11.dtd'>
<svg height="23.000mm" version="1.1" width="35.000mm" xmlns="http://www.w3.org/2000/svg">
    <!--Autogenerated with python-barcode 0.13.1-->
    <g id="barcode_group">
        <rect height="100%" style="fill:white" width="100%"/>
        <rect height="15.000mm" style="fill:black;" width="0.330mm" x="6.500mm" y="1.000mm"/>
        <rect height="15.000mm" style="fill:white;" width="0.330mm" x="6.830mm" y="1.000mm"/>
        <rect height="15.000mm" style="fill:black;" width="0.330mm" x="7.160mm" y="1.000mm"/>
        <rect height="15.000mm" style="fill:white;" width="0.660mm" x="7.490mm" y="1.000mm"/>
        <rect height="15.000mm" style="fill:black;" width="0.660mm" x="8.150mm" y="1.000mm"/>
        <rect height="15.000mm" style="fill:white;" width="0.660mm" x="8.810mm" y="1.000mm"/>
        <rect height="15.000mm" style="fill:black;" width="0.330mm" x="9.470mm" y="1.000mm"/>
        <rect height="15.000mm" style="fill:white;" width="0.660mm" x="9.800mm" y="1.000mm"/>
        <rect height="15.000mm" style="fill:black;" width="0.330mm" x="10.460mm" y="1.000mm"/>
        <rect height="15.000mm" style="fill:white;" width="0.660mm" x="10.790mm" y="1.000mm"/>
        <rect height="15.000mm" style="fill:black;" width="0.660mm" x="11.450mm" y="1.000mm"/>
        <rect height="15.000mm" style="fill:white;" width="0.330mm" x="12.110mm" y="1.000mm"/>
        <rect height="15.000mm" style="fill:black;" width="1.320mm" x="12.440mm" y="1.000mm"/>
        <rect height="15.000mm" style="fill:white;" width="0.330mm" x="13.760mm" y="1.000mm"/>
        <rect height="15.000mm" style="fill:black;" width="0.330mm" x="14.090mm" y="1.000mm"/>
        <rect height="15.000mm" style="fill:white;" width="0.330mm" x="14.420mm" y="1.000mm"/>
        <rect height="15.000mm" style="fill:black;" width="0.330mm" x="14.750mm" y="1.000mm"/>
        <rect height="15.000mm" style="fill:white;" width="0.990mm" x="15.080mm" y="1.000mm"/>
        <rect height="15.000mm" style="fill:black;" width="0.660mm" x="16.070mm" y="1.000mm"/>
        <rect height="15.000mm" style="fill:white;" width="0.330mm" x="16.730mm" y="1.000mm"/>
        <rect height="15.000mm" style="fill:black;" width="0.330mm" x="17.060mm" y="1.000mm"/>
        <rect height="15.000mm" style="fill:white;" width="0.330mm" x="17.390mm" y="1.000mm"/>
        <rect height="15.000mm" style="fill:black;" width="0.330mm" x="17.720mm" y="1.000mm"/>
        <rect height="15.000mm" style="fill:white;" width="0.330mm" x="18.050mm" y="1.000mm"/>
        <rect height="15.000mm" style="fill:black;" width="0.660mm" x="18.380mm" y="1.000mm"/>
        <rect height="15.000mm" style="fill:white;" width="0.660mm" x="19.040mm" y="1.000mm"/>
        <rect height="15.000mm" style="fill:black;" width="0.660mm" x="19.700mm" y="1.000mm"/>
        <rect height="15.000mm" style="fill:white;" width="0.330mm" x="20.360mm" y="1.000mm"/>
        <rect height="15.000mm" style="fill:black;" width="0.660mm" x="20.690mm" y="1.000mm"/>
        <rect height="15.000mm" style="fill:white;" width="0.330mm" x="21.350mm" y="1.000mm"/>
        <rect height="15.000mm" style="fill:black;" width="0.660mm" x="21.680mm" y="1.000mm"/>
        <rect height="15.000mm" style="fill:white;" width="0.660mm" x="22.340mm" y="1.000mm"/>
        <rect height="15.000mm" style="fill:black;" width="0.330mm" x="23.000mm" y="1.000mm"/>
        <rect height="15.000mm" style="fill:white;" width="1.320mm" x="23.330mm" y="1.000mm"/>
        <rect height="15.000mm" style="fill:black;" width="0.330mm" x="24.650mm" y="1.000mm"/>
        <rect height="15.000mm" style="fill:white;" width="0.330mm" x="24.980mm" y="1.000mm"/>
        <rect height="15.000mm" style="fill:black;" width="0.330mm" x="25.310mm" y="1.000mm"/>
        <rect height="15.000mm" style="fill:white;" width="0.660mm" x="25.640mm" y="1.000mm"/>
        <rect height="15.000mm" style="fill:black;" width="0.330mm" x="26.300mm" y="1.000mm"/>
        <rect height="15.000mm" style="fill:white;" width="0.990mm" x="26.630mm" y="1.000mm"/>
        <rect height="15.000mm" style="fill:black;" width="0.330mm" x="27.620mm" y="1.000mm"/>
        <rect height="15.000mm" style="fill:white;" width="0.330mm" x="27.950mm" y="1.000mm"/>
        <rect height="15.000mm" style="fill:black;" width="0.330mm" x="28.280mm" y="1.000mm"/>
        <text style="fill:black;font-size:10pt;text-anchor:middle;" x="17.555mm" y="21.000mm">12341238</text>
    </g>
</svg>
